<svg xmlns="http://www.w3.org/2000/svg" width="1024" height="1024">
  <path fill="#fafafb" d="M290.56 9.344A32 32 0 0 1 313.152 0h397.696a32.007 32.007 0 0 1 22.592 9.344l281.216 281.216a31.991 31.991 0 0 1 9.344 22.592v397.696a31.998 31.998 0 0 1-9.344 22.592L733.44 1014.656a31.998 31.998 0 0 1-22.592 9.344H313.152a31.991 31.991 0 0 1-22.592-9.344L9.344 733.44A32.007 32.007 0 0 1 0 710.848V313.152a32 32 0 0 1 9.344-22.592L290.56 9.344zM326.4 64 64 326.4v371.2L326.4 960h371.2L960 697.6V326.4L697.6 64H326.4z"/>
  <path fill="#fafafb" d="M297.344 297.344c2.973-2.98 6.504-5.344 10.391-6.958a31.982 31.982 0 0 1 24.53 0 31.988 31.988 0 0 1 10.391 6.958L512 466.752l169.344-169.408A32.046 32.046 0 0 1 704 287.959a32.048 32.048 0 0 1 22.656 9.385 32.105 32.105 0 0 1 6.946 10.394 32.074 32.074 0 0 1 0 24.523 32.109 32.109 0 0 1-6.946 10.395L557.248 512l169.408 169.344a32.094 32.094 0 0 1 6.946 10.394 32.064 32.064 0 0 1 0 24.524c-1.613 3.887-3.972 7.42-6.946 10.394s-6.507 5.333-10.394 6.946a32.064 32.064 0 0 1-24.524 0 32.094 32.094 0 0 1-10.394-6.946L512 557.248 342.656 726.656a32.109 32.109 0 0 1-10.395 6.946 32.087 32.087 0 0 1-24.523 0A32.046 32.046 0 0 1 287.959 704a32.048 32.048 0 0 1 9.385-22.656L466.752 512 297.344 342.656c-2.98-2.973-5.344-6.504-6.958-10.391a31.982 31.982 0 0 1 0-24.53 31.988 31.988 0 0 1 6.958-10.391z"/>
</svg>
